STARTFONT 2.1
COMMENT This font was taken from the dosemu project, resized by 
COMMENT bdfresize (-h 19/16) and finally corrected and sharpened 
COMMENT by hand.
COMMENT 
COMMENT If you choose any 640x480 pix display you'll have a nearby
COMMENT fullscreen mode when using xdosemu and leaving away the 
COMMENT X Windows' title bar and border lines. It'll be exactly 
COMMENT 640x475 pix.
COMMENT 
COMMENT Have a look to the other fonts of this series as well.
COMMENT Written in December 2002 by Martin Reuber, OFD Kiel,
COMMENT German Fiscal Administration.
COMMENT 
COMMENT Update 003 in January 2004:
COMMENT Small corrections in font name, properties and comments.
FONT -dosemu-vga-Medium-R-Normal--19-190-75-75-c-80-IBM-CP437
SIZE 19 75 75
FONTBOUNDINGBOX 8 19 0 -5
STARTPROPERTIES 22
POINT_SIZE 190
WEIGHT 10
RESOLUTION 100
RESOLUTION_X 75
RESOLUTION_Y 75
QUAD_WIDTH 8
DEFAULT_CHAR 0
FONT_ASCENT 14
FONT_DESCENT 5
_ORIGINAL_FONT_NAME "vga"
_XMBDFED_INFO "Edited with xmbdfed 4.5."
FOUNDRY "dosemu"
FAMILY_NAME "vga"
WEIGHT_NAME "Medium"
SLANT "R"
SETWIDTH_NAME "Normal"
ADD_STYLE_NAME "640x480pix_screen_max_size"
PIXEL_SIZE 19
SPACING "c"
AVERAGE_WIDTH 80
CHARSET_REGISTRY "IBM"
CHARSET_ENCODING "CP437"
ENDPROPERTIES
CHARS 256
STARTCHAR 000
ENCODING 0
SWIDTH 404 0
DWIDTH 8 0
BBX 0 0 0 0
BITMAP
ENDCHAR
STARTCHAR 001
ENCODING 1
SWIDTH 404 0
DWIDTH 8 0
BBX 8 12 0 0
BITMAP
7E
81
A5
A5
81
81
A5
A5
99
81
81
7E
ENDCHAR
STARTCHAR 002
ENCODING 2
SWIDTH 404 0
DWIDTH 8 0
BBX 8 12 0 0
BITMAP
7E
FF
DB
FF
FF
FF
DB
E7
FF
FF
FF
7E
ENDCHAR
STARTCHAR 003
ENCODING 3
SWIDTH 404 0
DWIDTH 8 0
BBX 7 8 0 1
BITMAP
6C
FE
FE
FE
FE
7C
38
10
ENDCHAR
STARTCHAR 004
ENCODING 4
SWIDTH 404 0
DWIDTH 8 0
BBX 7 8 0 1
BITMAP
10
38
7C
FE
FE
7C
38
10
ENDCHAR
STARTCHAR 005
ENCODING 5
SWIDTH 404 0
DWIDTH 8 0
BBX 8 11 0 0
BITMAP
18
3C
3C
FF
E7
E7
E7
FF
18
18
3C
ENDCHAR
STARTCHAR 006
ENCODING 6
SWIDTH 404 0
DWIDTH 8 0
BBX 8 11 0 0
BITMAP
18
3C
7E
FF
FF
FF
7E
7E
18
18
3C
ENDCHAR
STARTCHAR 007
ENCODING 7
SWIDTH 404 0
DWIDTH 8 0
BBX 4 5 2 2
BITMAP
60
F0
F0
F0
60
ENDCHAR
STARTCHAR 008
ENCODING 8
SWIDTH 404 0
DWIDTH 8 0
BBX 8 19 0 -5
BITMAP
FF
FF
FF
FF
FF
FF
FF
FF
E7
C3
C3
E7
FF
FF
FF
FF
FF
FF
FF
ENDCHAR
STARTCHAR 009
ENCODING 9
SWIDTH 404 0
DWIDTH 8 0
BBX 6 7 1 1
BITMAP
78
CC
CC
84
CC
CC
78
ENDCHAR
STARTCHAR 010
ENCODING 10
SWIDTH 404 0
DWIDTH 8 0
BBX 8 19 0 -5
BITMAP
FF
FF
FF
FF
FF
FF
FF
DB
99
BD
BD
99
DB
FF
FF
FF
FF
FF
FF
ENDCHAR
STARTCHAR 011
ENCODING 11
SWIDTH 404 0
DWIDTH 8 0
BBX 7 12 0 0
BITMAP
1E
06
0E
0A
1A
78
CC
CC
CC
CC
CC
78
ENDCHAR
STARTCHAR 012
ENCODING 12
SWIDTH 404 0
DWIDTH 8 0
BBX 6 12 1 0
BITMAP
78
CC
CC
CC
CC
CC
78
30
30
FC
30
30
ENDCHAR
STARTCHAR 013
ENCODING 13
SWIDTH 404 0
DWIDTH 8 0
BBX 8 12 0 0
BITMAP
3F
33
33
3F
30
30
30
30
30
70
F0
E0
ENDCHAR
STARTCHAR 014
ENCODING 14
SWIDTH 404 0
DWIDTH 8 0
BBX 8 13 0 -1
BITMAP
7F
63
63
7F
63
63
63
63
63
67
E7
E6
C0
ENDCHAR
STARTCHAR 015
ENCODING 15
SWIDTH 404 0
DWIDTH 8 0
BBX 8 11 0 0
BITMAP
18
18
DB
FF
3C
E7
3C
FF
DB
18
18
ENDCHAR
STARTCHAR 016
ENCODING 16
SWIDTH 404 0
DWIDTH 8 0
BBX 7 13 0 0
BITMAP
80
C0
E0
F0
F8
FC
FE
FC
F8
F0
E0
C0
80
ENDCHAR
STARTCHAR 017
ENCODING 17
SWIDTH 404 0
DWIDTH 8 0
BBX 7 13 0 0
BITMAP
02
06
0E
1E
3E
7E
FE
7E
3E
1E
0E
06
02
ENDCHAR
STARTCHAR 018
ENCODING 18
SWIDTH 404 0
DWIDTH 8 0
BBX 6 11 1 1
BITMAP
30
78
FC
30
30
30
30
30
FC
78
30
ENDCHAR
STARTCHAR 019
ENCODING 19
SWIDTH 404 0
DWIDTH 8 0
BBX 6 12 1 0
BITMAP
CC
CC
CC
CC
CC
CC
CC
CC
CC
00
CC
CC
ENDCHAR
STARTCHAR 020
ENCODING 20
SWIDTH 404 0
DWIDTH 8 0
BBX 8 12 0 0
BITMAP
7F
DB
DB
DB
DB
7B
1B
1B
1B
1B
1B
1B
ENDCHAR
STARTCHAR 021
ENCODING 21
SWIDTH 404 0
DWIDTH 8 0
BBX 7 12 0 0
BITMAP
7C
C6
62
30
78
4C
64
3C
18
8C
C6
7C
ENDCHAR
STARTCHAR 022
ENCODING 22
SWIDTH 404 0
DWIDTH 8 0
BBX 7 5 0 0
BITMAP
FE
FE
FE
FE
FE
ENDCHAR
STARTCHAR 023
ENCODING 23
SWIDTH 404 0
DWIDTH 8 0
BBX 6 12 1 0
BITMAP
30
78
FC
30
30
30
30
30
FC
78
30
FC
ENDCHAR
STARTCHAR 024
ENCODING 24
SWIDTH 404 0
DWIDTH 8 0
BBX 6 12 1 0
BITMAP
30
78
FC
30
30
30
30
30
30
30
30
30
ENDCHAR
STARTCHAR 025
ENCODING 25
SWIDTH 404 0
DWIDTH 8 0
BBX 6 12 1 0
BITMAP
30
30
30
30
30
30
30
30
30
FC
78
30
ENDCHAR
STARTCHAR 026
ENCODING 26
SWIDTH 404 0
DWIDTH 8 0
BBX 7 5 0 2
BITMAP
18
0C
FE
0C
18
ENDCHAR
STARTCHAR 027
ENCODING 27
SWIDTH 404 0
DWIDTH 8 0
BBX 7 5 0 2
BITMAP
30
60
FE
60
30
ENDCHAR
STARTCHAR 028
ENCODING 28
SWIDTH 404 0
DWIDTH 8 0
BBX 7 5 0 4
BITMAP
C0
C0
C0
C0
FE
ENDCHAR
STARTCHAR 029
ENCODING 29
SWIDTH 404 0
DWIDTH 8 0
BBX 7 5 0 2
BITMAP
28
6C
FE
6C
28
ENDCHAR
STARTCHAR 030
ENCODING 30
SWIDTH 404 0
DWIDTH 8 0
BBX 7 8 0 1
BITMAP
10
38
38
7C
7C
FE
FE
FE
ENDCHAR
STARTCHAR 031
ENCODING 31
SWIDTH 404 0
DWIDTH 8 0
BBX 7 8 0 1
BITMAP
FE
FE
FE
7C
7C
38
38
10
ENDCHAR
STARTCHAR 032
ENCODING 32
SWIDTH 404 0
DWIDTH 8 0
BBX 0 0 0 0
BITMAP
ENDCHAR
STARTCHAR 033
ENCODING 33
SWIDTH 404 0
DWIDTH 8 0
BBX 4 12 2 0
BITMAP
60
F0
F0
F0
F0
60
60
60
60
00
60
60
ENDCHAR
STARTCHAR 034
ENCODING 34
SWIDTH 404 0
DWIDTH 8 0
BBX 6 5 1 9
BITMAP
CC
CC
CC
CC
48
ENDCHAR
STARTCHAR 035
ENCODING 35
SWIDTH 404 0
DWIDTH 8 0
BBX 7 11 0 0
BITMAP
6C
6C
6C
FE
6C
6C
6C
FE
6C
6C
6C
ENDCHAR
STARTCHAR 036
ENCODING 36
SWIDTH 404 0
DWIDTH 8 0
BBX 7 16 0 -2
BITMAP
10
10
7C
D6
D6
D2
70
38
1C
16
96
D6
D6
7C
10
10
ENDCHAR
STARTCHAR 037
ENCODING 37
SWIDTH 404 0
DWIDTH 8 0
BBX 7 8 0 0
BITMAP
C2
C6
0C
18
30
60
C6
86
ENDCHAR
STARTCHAR 038
ENCODING 38
SWIDTH 404 0
DWIDTH 8 0
BBX 7 12 0 0
BITMAP
38
6C
6C
6C
38
76
DC
CC
CC
CC
CC
76
ENDCHAR
STARTCHAR 039
ENCODING 39
SWIDTH 404 0
DWIDTH 8 0
BBX 3 5 1 9
BITMAP
60
60
60
60
C0
ENDCHAR
STARTCHAR 040
ENCODING 40
SWIDTH 404 0
DWIDTH 8 0
BBX 4 12 2 0
BITMAP
30
60
C0
C0
C0
C0
C0
C0
C0
C0
60
30
ENDCHAR
STARTCHAR 041
ENCODING 41
SWIDTH 404 0
DWIDTH 8 0
BBX 4 12 2 0
BITMAP
C0
60
30
30
30
30
30
30
30
30
60
C0
ENDCHAR
STARTCHAR 042
ENCODING 42
SWIDTH 404 0
DWIDTH 8 0
BBX 8 7 0 2
BITMAP
66
24
3C
FF
3C
24
66
ENDCHAR
STARTCHAR 043
ENCODING 43
SWIDTH 404 0
DWIDTH 8 0
BBX 6 5 1 3
BITMAP
30
30
FC
30
30
ENDCHAR
STARTCHAR 044
ENCODING 44
SWIDTH 404 0
DWIDTH 8 0
BBX 3 5 2 -1
BITMAP
60
60
60
60
C0
ENDCHAR
STARTCHAR 045
ENCODING 45
SWIDTH 404 0
DWIDTH 8 0
BBX 7 1 0 5
BITMAP
FE
ENDCHAR
STARTCHAR 046
ENCODING 46
SWIDTH 404 0
DWIDTH 8 0
BBX 2 3 3 0
BITMAP
C0
C0
C0
ENDCHAR
STARTCHAR 047
ENCODING 47
SWIDTH 404 0
DWIDTH 8 0
BBX 7 8 0 1
BITMAP
02
06
0C
18
30
60
C0
80
ENDCHAR
STARTCHAR 048
ENCODING 48
SWIDTH 404 0
DWIDTH 8 0
BBX 7 12 0 0
BITMAP
38
6C
C6
C6
C6
D6
D6
C6
C6
C6
6C
38
ENDCHAR
STARTCHAR 049
ENCODING 49
SWIDTH 404 0
DWIDTH 8 0
BBX 6 12 1 0
BITMAP
30
70
F0
30
30
30
30
30
30
30
30
FC
ENDCHAR
STARTCHAR 050
ENCODING 50
SWIDTH 404 0
DWIDTH 8 0
BBX 7 12 0 0
BITMAP
7C
C6
06
06
0C
18
30
60
C0
C0
C6
FE
ENDCHAR
STARTCHAR 051
ENCODING 51
SWIDTH 404 0
DWIDTH 8 0
BBX 7 12 0 0
BITMAP
7C
C6
06
06
06
3C
06
06
06
06
C6
7C
ENDCHAR
STARTCHAR 052
ENCODING 52
SWIDTH 404 0
DWIDTH 8 0
BBX 7 12 0 0
BITMAP
0C
1C
3C
6C
CC
FE
0C
0C
0C
0C
0C
1E
ENDCHAR
STARTCHAR 053
ENCODING 53
SWIDTH 404 0
DWIDTH 8 0
BBX 7 12 0 0
BITMAP
FE
C0
C0
C0
C0
FC
06
06
06
06
C6
7C
ENDCHAR
STARTCHAR 054
ENCODING 54
SWIDTH 404 0
DWIDTH 8 0
BBX 7 12 0 0
BITMAP
38
60
C0
C0
C0
FC
C6
C6
C6
C6
C6
7C
ENDCHAR
STARTCHAR 055
ENCODING 55
SWIDTH 404 0
DWIDTH 8 0
BBX 7 12 0 0
BITMAP
FE
C6
06
06
06
0C
18
30
30
30
30
30
ENDCHAR
STARTCHAR 056
ENCODING 56
SWIDTH 404 0
DWIDTH 8 0
BBX 7 12 0 0
BITMAP
7C
C6
C6
C6
C6
7C
C6
C6
C6
C6
C6
7C
ENDCHAR
STARTCHAR 057
ENCODING 57
SWIDTH 404 0
DWIDTH 8 0
BBX 7 12 0 0
BITMAP
7C
C6
C6
C6
C6
7E
06
06
06
06
0C
78
ENDCHAR
STARTCHAR 058
ENCODING 58
SWIDTH 404 0
DWIDTH 8 0
BBX 2 7 3 1
BITMAP
C0
C0
00
00
00
C0
C0
ENDCHAR
STARTCHAR 059
ENCODING 59
SWIDTH 404 0
DWIDTH 8 0
BBX 3 9 2 -1
BITMAP
60
60
00
00
00
60
60
60
C0
ENDCHAR
STARTCHAR 060
ENCODING 60
SWIDTH 404 0
DWIDTH 8 0
BBX 7 11 0 0
BITMAP
06
0C
18
30
60
C0
60
30
18
0C
06
ENDCHAR
STARTCHAR 061
ENCODING 61
SWIDTH 404 0
DWIDTH 8 0
BBX 6 3 1 4
BITMAP
FC
00
FC
ENDCHAR
STARTCHAR 062
ENCODING 62
SWIDTH 404 0
DWIDTH 8 0
BBX 7 11 0 0
BITMAP
C0
60
30
18
0C
06
0C
18
30
60
C0
ENDCHAR
STARTCHAR 063
ENCODING 63
SWIDTH 404 0
DWIDTH 8 0
BBX 7 12 0 0
BITMAP
7C
C6
86
06
0C
18
18
18
18
00
18
18
ENDCHAR
STARTCHAR 064
ENCODING 64
SWIDTH 404 0
DWIDTH 8 0
BBX 7 11 0 0
BITMAP
7C
C6
C6
CE
DE
DE
DE
DE
CC
C0
7C
ENDCHAR
STARTCHAR 065
ENCODING 65
SWIDTH 404 0
DWIDTH 8 0
BBX 7 12 0 0
BITMAP
10
38
6C
C6
C6
C6
FE
C6
C6
C6
C6
C6
ENDCHAR
STARTCHAR 066
ENCODING 66
SWIDTH 404 0
DWIDTH 8 0
BBX 7 12 0 0
BITMAP
FC
66
66
66
66
7C
66
66
66
66
66
FC
ENDCHAR
STARTCHAR 067
ENCODING 67
SWIDTH 404 0
DWIDTH 8 0
BBX 7 12 0 0
BITMAP
3C
66
C2
C0
C0
C0
C0
C0
C0
C2
66
3C
ENDCHAR
STARTCHAR 068
ENCODING 68
SWIDTH 404 0
DWIDTH 8 0
BBX 7 12 0 0
BITMAP
F8
6C
66
66
66
66
66
66
66
66
6C
F8
ENDCHAR
STARTCHAR 069
ENCODING 69
SWIDTH 404 0
DWIDTH 8 0
BBX 7 12 0 0
BITMAP
FE
66
62
62
68
78
68
60
62
62
66
FE
ENDCHAR
STARTCHAR 070
ENCODING 70
SWIDTH 404 0
DWIDTH 8 0
BBX 7 12 0 0
BITMAP
FE
66
62
62
68
78
68
60
60
60
60
F0
ENDCHAR
STARTCHAR 071
ENCODING 71
SWIDTH 404 0
DWIDTH 8 0
BBX 7 12 0 0
BITMAP
3C
66
C2
C0
C0
C0
C0
DE
C6
C6
66
3A
ENDCHAR
STARTCHAR 072
ENCODING 72
SWIDTH 404 0
DWIDTH 8 0
BBX 7 12 0 0
BITMAP
C6
C6
C6
C6
C6
FE
C6
C6
C6
C6
C6
C6
ENDCHAR
STARTCHAR 073
ENCODING 73
SWIDTH 404 0
DWIDTH 8 0
BBX 4 12 2 0
BITMAP
F0
60
60
60
60
60
60
60
60
60
60
F0
ENDCHAR
STARTCHAR 074
ENCODING 74
SWIDTH 404 0
DWIDTH 8 0
BBX 7 12 0 0
BITMAP
1E
0C
0C
0C
0C
0C
0C
CC
CC
CC
CC
78
ENDCHAR
STARTCHAR 075
ENCODING 75
SWIDTH 404 0
DWIDTH 8 0
BBX 7 12 0 0
BITMAP
E6
66
66
66
6C
78
78
6C
66
66
66
E6
ENDCHAR
STARTCHAR 076
ENCODING 76
SWIDTH 404 0
DWIDTH 8 0
BBX 7 12 0 0
BITMAP
F0
60
60
60
60
60
60
60
62
62
66
FE
ENDCHAR
STARTCHAR 077
ENCODING 77
SWIDTH 404 0
DWIDTH 8 0
BBX 7 12 0 0
BITMAP
C6
EE
FE
D6
D6
D6
C6
C6
C6
C6
C6
C6
ENDCHAR
STARTCHAR 078
ENCODING 78
SWIDTH 404 0
DWIDTH 8 0
BBX 7 12 0 0
BITMAP
C6
E6
F6
DE
CE
C6
C6
C6
C6
C6
C6
C6
ENDCHAR
STARTCHAR 079
ENCODING 79
SWIDTH 404 0
DWIDTH 8 0
BBX 7 12 0 0
BITMAP
7C
C6
C6
C6
C6
C6
C6
C6
C6
C6
C6
7C
ENDCHAR
STARTCHAR 080
ENCODING 80
SWIDTH 404 0
DWIDTH 8 0
BBX 7 12 0 0
BITMAP
FC
66
66
66
66
7C
60
60
60
60
60
F0
ENDCHAR
STARTCHAR 081
ENCODING 81
SWIDTH 404 0
DWIDTH 8 0
BBX 7 14 0 -2
BITMAP
7C
C6
C6
C6
C6
C6
C6
C6
C6
D6
DE
7C
0C
0E
ENDCHAR
STARTCHAR 082
ENCODING 82
SWIDTH 404 0
DWIDTH 8 0
BBX 7 12 0 0
BITMAP
FC
66
66
66
66
7C
6C
66
66
66
66
E6
ENDCHAR
STARTCHAR 083
ENCODING 83
SWIDTH 404 0
DWIDTH 8 0
BBX 7 12 0 0
BITMAP
7C
C6
C6
C2
60
38
0C
06
86
C6
C6
7C
ENDCHAR
STARTCHAR 084
ENCODING 84
SWIDTH 404 0
DWIDTH 8 0
BBX 6 12 1 0
BITMAP
FC
FC
B4
30
30
30
30
30
30
30
30
78
ENDCHAR
STARTCHAR 085
ENCODING 85
SWIDTH 404 0
DWIDTH 8 0
BBX 7 12 0 0
BITMAP
C6
C6
C6
C6
C6
C6
C6
C6
C6
C6
C6
7C
ENDCHAR
STARTCHAR 086
ENCODING 86
SWIDTH 404 0
DWIDTH 8 0
BBX 7 12 0 0
BITMAP
C6
C6
C6
C6
C6
C6
C6
C6
C6
6C
38
10
ENDCHAR
STARTCHAR 087
ENCODING 87
SWIDTH 404 0
DWIDTH 8 0
BBX 7 12 0 0
BITMAP
C6
C6
C6
C6
C6
C6
D6
D6
D6
FE
EE
6C
ENDCHAR
STARTCHAR 088
ENCODING 88
SWIDTH 404 0
DWIDTH 8 0
BBX 7 12 0 0
BITMAP
C6
C6
6C
6C
38
38
38
38
6C
6C
C6
C6
ENDCHAR
STARTCHAR 089
ENCODING 89
SWIDTH 404 0
DWIDTH 8 0
BBX 6 12 1 0
BITMAP
CC
CC
CC
CC
CC
78
30
30
30
30
30
78
ENDCHAR
STARTCHAR 090
ENCODING 90
SWIDTH 404 0
DWIDTH 8 0
BBX 7 12 0 0
BITMAP
FE
C6
86
86
0C
18
30
60
C2
C2
C6
FE
ENDCHAR
STARTCHAR 091
ENCODING 91
SWIDTH 404 0
DWIDTH 8 0
BBX 4 12 2 0
BITMAP
F0
C0
C0
C0
C0
C0
C0
C0
C0
C0
C0
F0
ENDCHAR
STARTCHAR 092
ENCODING 92
SWIDTH 404 0
DWIDTH 8 0
BBX 7 8 0 1
BITMAP
80
C0
60
30
18
0C
06
02
ENDCHAR
STARTCHAR 093
ENCODING 93
SWIDTH 404 0
DWIDTH 8 0
BBX 4 12 2 0
BITMAP
F0
30
30
30
30
30
30
30
30
30
30
F0
ENDCHAR
STARTCHAR 094
ENCODING 94
SWIDTH 404 0
DWIDTH 8 0
BBX 7 5 0 8
BITMAP
10
38
6C
C6
82
ENDCHAR
STARTCHAR 095
ENCODING 95
SWIDTH 404 0
DWIDTH 8 0
BBX 8 1 0 -2
BITMAP
FF
ENDCHAR
STARTCHAR 096
ENCODING 96
SWIDTH 404 0
DWIDTH 8 0
BBX 3 5 2 9
BITMAP
C0
C0
C0
C0
60
ENDCHAR
STARTCHAR 097
ENCODING 97
SWIDTH 404 0
DWIDTH 8 0
BBX 7 8 0 0
BITMAP
78
0C
0C
7C
CC
CC
CC
76
ENDCHAR
STARTCHAR 098
ENCODING 98
SWIDTH 404 0
DWIDTH 8 0
BBX 7 12 0 0
BITMAP
E0
60
60
60
78
6C
66
66
66
66
66
7C
ENDCHAR
STARTCHAR 099
ENCODING 99
SWIDTH 404 0
DWIDTH 8 0
BBX 7 8 0 0
BITMAP
7C
C6
C0
C0
C0
C0
C6
7C
ENDCHAR
STARTCHAR 100
ENCODING 100
SWIDTH 404 0
DWIDTH 8 0
BBX 7 12 0 0
BITMAP
1C
0C
0C
0C
3C
6C
CC
CC
CC
CC
CC
76
ENDCHAR
STARTCHAR 101
ENCODING 101
SWIDTH 404 0
DWIDTH 8 0
BBX 7 8 0 0
BITMAP
7C
C6
C6
FE
C0
C0
C6
7C
ENDCHAR
STARTCHAR 102
ENCODING 102
SWIDTH 404 0
DWIDTH 8 0
BBX 6 12 1 0
BITMAP
38
6C
64
60
F0
60
60
60
60
60
60
F0
ENDCHAR
STARTCHAR 103
ENCODING 103
SWIDTH 404 0
DWIDTH 8 0
BBX 7 12 0 -4
BITMAP
76
CC
CC
CC
CC
CC
CC
7C
0C
0C
CC
78
ENDCHAR
STARTCHAR 104
ENCODING 104
SWIDTH 404 0
DWIDTH 8 0
BBX 7 12 0 0
BITMAP
E0
60
60
60
6C
76
66
66
66
66
66
E6
ENDCHAR
STARTCHAR 105
ENCODING 105
SWIDTH 404 0
DWIDTH 8 0
BBX 4 11 2 0
BITMAP
60
60
00
E0
60
60
60
60
60
60
F0
ENDCHAR
STARTCHAR 106
ENCODING 106
SWIDTH 404 0
DWIDTH 8 0
BBX 6 15 0 -4
BITMAP
0C
0C
00
1C
0C
0C
0C
0C
0C
0C
0C
CC
CC
CC
78
ENDCHAR
STARTCHAR 107
ENCODING 107
SWIDTH 404 0
DWIDTH 8 0
BBX 7 12 0 0
BITMAP
E0
60
60
60
66
6C
78
78
6C
66
66
E6
ENDCHAR
STARTCHAR 108
ENCODING 108
SWIDTH 404 0
DWIDTH 8 0
BBX 4 12 2 0
BITMAP
E0
60
60
60
60
60
60
60
60
60
60
F0
ENDCHAR
STARTCHAR 109
ENCODING 109
SWIDTH 404 0
DWIDTH 8 0
BBX 7 8 0 0
BITMAP
6C
FE
D6
D6
D6
D6
C6
C6
ENDCHAR
STARTCHAR 110
ENCODING 110
SWIDTH 404 0
DWIDTH 8 0
BBX 7 8 0 0
BITMAP
DC
66
66
66
66
66
66
66
ENDCHAR
STARTCHAR 111
ENCODING 111
SWIDTH 404 0
DWIDTH 8 0
BBX 7 8 0 0
BITMAP
7C
C6
C6
C6
C6
C6
C6
7C
ENDCHAR
STARTCHAR 112
ENCODING 112
SWIDTH 404 0
DWIDTH 8 0
BBX 7 12 0 -4
BITMAP
DC
66
66
66
66
66
66
7C
60
60
60
F0
ENDCHAR
STARTCHAR 113
ENCODING 113
SWIDTH 404 0
DWIDTH 8 0
BBX 7 12 0 -4
BITMAP
76
CC
CC
CC
CC
CC
CC
7C
0C
0C
0C
1E
ENDCHAR
STARTCHAR 114
ENCODING 114
SWIDTH 404 0
DWIDTH 8 0
BBX 7 8 0 0
BITMAP
DC
76
66
60
60
60
60
F0
ENDCHAR
STARTCHAR 115
ENCODING 115
SWIDTH 404 0
DWIDTH 8 0
BBX 7 8 0 0
BITMAP
7C
C6
C2
78
0C
86
C6
7C
ENDCHAR
STARTCHAR 116
ENCODING 116
SWIDTH 404 0
DWIDTH 8 0
BBX 7 12 0 0
BITMAP
10
30
30
30
FC
30
30
30
30
30
36
1C
ENDCHAR
STARTCHAR 117
ENCODING 117
SWIDTH 404 0
DWIDTH 8 0
BBX 7 8 0 0
BITMAP
CC
CC
CC
CC
CC
CC
CC
76
ENDCHAR
STARTCHAR 118
ENCODING 118
SWIDTH 404 0
DWIDTH 8 0
BBX 6 8 1 0
BITMAP
CC
CC
CC
CC
CC
CC
78
30
ENDCHAR
STARTCHAR 119
ENCODING 119
SWIDTH 404 0
DWIDTH 8 0
BBX 7 8 0 0
BITMAP
C6
C6
C6
D6
D6
D6
FE
6C
ENDCHAR
STARTCHAR 120
ENCODING 120
SWIDTH 404 0
DWIDTH 8 0
BBX 7 8 0 0
BITMAP
C6
6C
38
10
38
6C
C6
82
ENDCHAR
STARTCHAR 121
ENCODING 121
SWIDTH 404 0
DWIDTH 8 0
BBX 7 12 0 -4
BITMAP
C6
C6
C6
C6
C6
C6
C6
7E
06
06
0C
F8
ENDCHAR
STARTCHAR 122
ENCODING 122
SWIDTH 404 0
DWIDTH 8 0
BBX 7 8 0 0
BITMAP
FE
CC
18
30
60
C0
C6
FE
ENDCHAR
STARTCHAR 123
ENCODING 123
SWIDTH 404 0
DWIDTH 8 0
BBX 6 12 1 0
BITMAP
1C
30
30
30
30
E0
30
30
30
30
30
1C
ENDCHAR
STARTCHAR 124
ENCODING 124
SWIDTH 404 0
DWIDTH 8 0
BBX 2 12 3 0
BITMAP
C0
C0
C0
C0
C0
00
C0
C0
C0
C0
C0
C0
ENDCHAR
STARTCHAR 125
ENCODING 125
SWIDTH 404 0
DWIDTH 8 0
BBX 6 12 1 0
BITMAP
E0
30
30
30
30
1C
30
30
30
30
30
E0
ENDCHAR
STARTCHAR 126
ENCODING 126
SWIDTH 404 0
DWIDTH 8 0
BBX 7 3 0 10
BITMAP
76
D4
9C
ENDCHAR
STARTCHAR 127
ENCODING 127
SWIDTH 404 0
DWIDTH 8 0
BBX 7 8 0 1
BITMAP
10
38
6C
C6
C6
C6
C6
FE
ENDCHAR
STARTCHAR 128
ENCODING 128
SWIDTH 404 0
DWIDTH 8 0
BBX 7 14 0 -2
BITMAP
3C
66
C2
C0
C0
C0
C0
C0
C2
66
3C
0C
06
7C
ENDCHAR
STARTCHAR 129
ENCODING 129
SWIDTH 404 0
DWIDTH 8 0
BBX 7 11 0 0
BITMAP
CC
CC
00
CC
CC
CC
CC
CC
CC
CC
76
ENDCHAR
STARTCHAR 130
ENCODING 130
SWIDTH 404 0
DWIDTH 8 0
BBX 7 13 0 0
BITMAP
0C
18
30
00
00
7C
C6
C6
FE
C0
C0
C6
7C
ENDCHAR
STARTCHAR 131
ENCODING 131
SWIDTH 404 0
DWIDTH 8 0
BBX 7 13 0 0
BITMAP
10
38
6C
00
00
78
0C
0C
7C
CC
CC
CC
76
ENDCHAR
STARTCHAR 132
ENCODING 132
SWIDTH 404 0
DWIDTH 8 0
BBX 7 11 0 0
BITMAP
CC
CC
00
78
0C
0C
7C
CC
CC
CC
76
ENDCHAR
STARTCHAR 133
ENCODING 133
SWIDTH 404 0
DWIDTH 8 0
BBX 7 13 0 0
BITMAP
60
30
18
0C
00
78
0C
0C
7C
CC
CC
CC
76
ENDCHAR
STARTCHAR 134
ENCODING 134
SWIDTH 404 0
DWIDTH 8 0
BBX 7 13 0 0
BITMAP
38
6C
6C
38
00
78
0C
0C
7C
CC
CC
CC
76
ENDCHAR
STARTCHAR 135
ENCODING 135
SWIDTH 404 0
DWIDTH 8 0
BBX 6 11 1 -1
BITMAP
78
CC
C4
C0
C0
CC
C8
78
18
0C
78
ENDCHAR
STARTCHAR 136
ENCODING 136
SWIDTH 404 0
DWIDTH 8 0
BBX 7 13 0 0
BITMAP
10
38
6C
44
00
7C
C6
C6
FE
C0
C0
C6
7C
ENDCHAR
STARTCHAR 137
ENCODING 137
SWIDTH 404 0
DWIDTH 8 0
BBX 7 11 0 0
BITMAP
C6
C6
00
7C
C6
C6
FE
C0
C0
C6
7C
ENDCHAR
STARTCHAR 138
ENCODING 138
SWIDTH 404 0
DWIDTH 8 0
BBX 7 13 0 0
BITMAP
60
30
18
0C
00
7C
C6
C6
FE
C0
C0
C6
7C
ENDCHAR
STARTCHAR 139
ENCODING 139
SWIDTH 404 0
DWIDTH 8 0
BBX 6 11 1 0
BITMAP
CC
CC
00
70
30
30
30
30
30
30
78
ENDCHAR
STARTCHAR 140
ENCODING 140
SWIDTH 404 0
DWIDTH 8 0
BBX 6 13 1 0
BITMAP
30
78
CC
84
00
70
30
30
30
30
30
30
78
ENDCHAR
STARTCHAR 141
ENCODING 141
SWIDTH 404 0
DWIDTH 8 0
BBX 5 13 1 0
BITMAP
C0
60
30
10
00
70
30
30
30
30
30
30
78
ENDCHAR
STARTCHAR 142
ENCODING 142
SWIDTH 404 0
DWIDTH 8 0
BBX 7 14 0 0
BITMAP
C6
C6
10
38
6C
C6
C6
C6
FE
C6
C6
C6
C6
C6
ENDCHAR
STARTCHAR 143
ENCODING 143
SWIDTH 404 0
DWIDTH 8 0
BBX 7 14 0 0
BITMAP
38
28
38
10
38
6C
C6
C6
FE
C6
C6
C6
C6
C6
ENDCHAR
STARTCHAR 144
ENCODING 144
SWIDTH 404 0
DWIDTH 8 0
BBX 7 14 0 0
BITMAP
18
30
60
00
FE
66
62
68
78
68
60
62
66
FE
ENDCHAR
STARTCHAR 145
ENCODING 145
SWIDTH 404 0
DWIDTH 8 0
BBX 7 8 0 0
BITMAP
CC
76
36
36
7E
D8
D8
6E
ENDCHAR
STARTCHAR 146
ENCODING 146
SWIDTH 404 0
DWIDTH 8 0
BBX 7 12 0 0
BITMAP
3E
6C
CC
CC
FE
CC
CC
CC
CC
CC
CC
CE
ENDCHAR
STARTCHAR 147
ENCODING 147
SWIDTH 404 0
DWIDTH 8 0
BBX 7 13 0 0
BITMAP
10
38
6C
44
00
7C
C6
C6
C6
C6
C6
C6
7C
ENDCHAR
STARTCHAR 148
ENCODING 148
SWIDTH 404 0
DWIDTH 8 0
BBX 7 11 0 0
BITMAP
C6
C6
00
7C
C6
C6
C6
C6
C6
C6
7C
ENDCHAR
STARTCHAR 149
ENCODING 149
SWIDTH 404 0
DWIDTH 8 0
BBX 7 13 0 0
BITMAP
60
30
18
0C
00
7C
C6
C6
C6
C6
C6
C6
7C
ENDCHAR
STARTCHAR 150
ENCODING 150
SWIDTH 404 0
DWIDTH 8 0
BBX 7 13 0 0
BITMAP
30
78
CC
84
00
CC
CC
CC
CC
CC
CC
CC
76
ENDCHAR
STARTCHAR 151
ENCODING 151
SWIDTH 404 0
DWIDTH 8 0
BBX 7 13 0 0
BITMAP
60
30
18
0C
00
CC
CC
CC
CC
CC
CC
CC
76
ENDCHAR
STARTCHAR 152
ENCODING 152
SWIDTH 404 0
DWIDTH 8 0
BBX 7 15 0 -4
BITMAP
C6
C6
00
C6
C6
C6
C6
C6
C6
C6
7E
06
06
0C
78
ENDCHAR
STARTCHAR 153
ENCODING 153
SWIDTH 404 0
DWIDTH 8 0
BBX 7 14 0 0
BITMAP
C6
C6
00
7C
C6
C6
C6
C6
C6
C6
C6
C6
C6
7C
ENDCHAR
STARTCHAR 154
ENCODING 154
SWIDTH 404 0
DWIDTH 8 0
BBX 7 14 0 0
BITMAP
C6
C6
00
C6
C6
C6
C6
C6
C6
C6
C6
C6
C6
7C
ENDCHAR
STARTCHAR 155
ENCODING 155
SWIDTH 404 0
DWIDTH 8 0
BBX 7 16 0 -2
BITMAP
08
08
3C
6E
CA
C8
C8
C8
C8
C8
C8
CA
6E
3C
08
08
ENDCHAR
STARTCHAR 156
ENCODING 156
SWIDTH 404 0
DWIDTH 8 0
BBX 7 13 0 0
BITMAP
38
6C
64
64
60
F0
60
60
60
60
62
E6
FC
ENDCHAR
STARTCHAR 157
ENCODING 157
SWIDTH 404 0
DWIDTH 8 0
BBX 6 12 1 0
BITMAP
CC
CC
CC
CC
78
30
FC
30
FC
30
30
30
ENDCHAR
STARTCHAR 158
ENCODING 158
SWIDTH 404 0
DWIDTH 8 0
BBX 7 13 0 0
BITMAP
F8
CC
CC
FC
F8
C4
CC
DE
CC
CC
CC
CC
C6
ENDCHAR
STARTCHAR 159
ENCODING 159
SWIDTH 404 0
DWIDTH 8 0
BBX 8 15 0 -2
BITMAP
0E
1B
19
18
18
18
7E
18
18
18
18
18
98
D8
70
ENDCHAR
STARTCHAR 160
ENCODING 160
SWIDTH 404 0
DWIDTH 8 0
BBX 7 13 0 0
BITMAP
18
30
60
C0
00
78
0C
0C
7C
CC
CC
CC
76
ENDCHAR
STARTCHAR 161
ENCODING 161
SWIDTH 404 0
DWIDTH 8 0
BBX 4 13 2 0
BITMAP
30
60
C0
80
00
E0
60
60
60
60
60
60
F0
ENDCHAR
STARTCHAR 162
ENCODING 162
SWIDTH 404 0
DWIDTH 8 0
BBX 7 13 0 0
BITMAP
18
30
60
40
00
7C
C6
C6
C6
C6
C6
C6
7C
ENDCHAR
STARTCHAR 163
ENCODING 163
SWIDTH 404 0
DWIDTH 8 0
BBX 7 13 0 0
BITMAP
18
30
60
40
00
CC
CC
CC
CC
CC
CC
CC
76
ENDCHAR
STARTCHAR 164
ENCODING 164
SWIDTH 404 0
DWIDTH 8 0
BBX 7 12 0 0
BITMAP
36
D4
88
00
DC
66
66
66
66
66
66
66
ENDCHAR
STARTCHAR 165
ENCODING 165
SWIDTH 404 0
DWIDTH 8 0
BBX 7 14 0 0
BITMAP
36
CC
00
C6
E6
F6
DE
CE
C6
C6
C6
C6
C6
C6
ENDCHAR
STARTCHAR 166
ENCODING 166
SWIDTH 404 0
DWIDTH 8 0
BBX 6 7 1 6
BITMAP
78
D8
D8
D8
7C
00
FC
ENDCHAR
STARTCHAR 167
ENCODING 167
SWIDTH 404 0
DWIDTH 8 0
BBX 5 7 1 6
BITMAP
70
D8
D8
D8
70
00
F8
ENDCHAR
STARTCHAR 168
ENCODING 168
SWIDTH 404 0
DWIDTH 8 0
BBX 7 12 0 0
BITMAP
30
30
00
30
30
30
60
C0
C6
C6
C6
7C
ENDCHAR
STARTCHAR 169
ENCODING 169
SWIDTH 404 0
DWIDTH 8 0
BBX 7 7 0 0
BITMAP
FE
C0
C0
C0
C0
C0
C0
ENDCHAR
STARTCHAR 170
ENCODING 170
SWIDTH 404 0
DWIDTH 8 0
BBX 7 7 0 0
BITMAP
FE
06
06
06
06
06
06
ENDCHAR
STARTCHAR 171
ENCODING 171
SWIDTH 404 0
DWIDTH 8 0
BBX 7 15 0 -2
BITMAP
C0
C0
C0
C2
C6
0C
18
30
60
C0
9C
06
0C
18
3E
ENDCHAR
STARTCHAR 172
ENCODING 172
SWIDTH 404 0
DWIDTH 8 0
BBX 7 15 0 -2
BITMAP
C0
C0
C0
C2
C6
0C
18
30
66
CE
9A
32
3E
06
06
ENDCHAR
STARTCHAR 173
ENCODING 173
SWIDTH 404 0
DWIDTH 8 0
BBX 4 12 2 0
BITMAP
60
60
00
60
60
60
60
F0
F0
F0
F0
60
ENDCHAR
STARTCHAR 174
ENCODING 174
SWIDTH 404 0
DWIDTH 8 0
BBX 7 6 0 2
BITMAP
36
6C
D8
D8
6C
36
ENDCHAR
STARTCHAR 175
ENCODING 175
SWIDTH 404 0
DWIDTH 8 0
BBX 7 6 0 2
BITMAP
D8
6C
36
36
6C
D8
ENDCHAR
STARTCHAR 176
ENCODING 176
SWIDTH 404 0
DWIDTH 8 0
BBX 8 19 0 -5
BITMAP
11
44
11
44
11
44
11
44
11
44
11
44
11
44
11
44
11
44
11
ENDCHAR
STARTCHAR 177
ENCODING 177
SWIDTH 404 0
DWIDTH 8 0
BBX 8 19 0 -5
BITMAP
55
AA
55
AA
55
AA
55
AA
55
AA
55
AA
55
AA
55
AA
55
AA
55
ENDCHAR
STARTCHAR 178
ENCODING 178
SWIDTH 404 0
DWIDTH 8 0
BBX 8 19 0 -5
BITMAP
DD
77
DD
77
DD
77
DD
77
DD
77
DD
77
DD
77
DD
77
DD
77
DD
ENDCHAR
STARTCHAR 179
ENCODING 179
SWIDTH 404 0
DWIDTH 8 0
BBX 8 19 0 -5
BITMAP
18
18
18
18
18
18
18
18
18
18
18
18
18
18
18
18
18
18
18
ENDCHAR
STARTCHAR 180
ENCODING 180
SWIDTH 404 0
DWIDTH 8 0
BBX 8 19 0 -5
BITMAP
18
18
18
18
18
18
18
18
18
F8
18
18
18
18
18
18
18
18
18
ENDCHAR
STARTCHAR 181
ENCODING 181
SWIDTH 404 0
DWIDTH 8 0
BBX 8 19 0 -5
BITMAP
18
18
18
18
18
18
18
18
F8
18
F8
18
18
18
18
18
18
18
18
ENDCHAR
STARTCHAR 182
ENCODING 182
SWIDTH 404 0
DWIDTH 8 0
BBX 8 19 0 -5
BITMAP
36
36
36
36
36
36
36
36
36
F6
36
36
36
36
36
36
36
36
36
ENDCHAR
STARTCHAR 183
ENCODING 183
SWIDTH 404 0
DWIDTH 8 0
BBX 7 10 0 -5
BITMAP
FE
36
36
36
36
36
36
36
36
36
ENDCHAR
STARTCHAR 184
ENCODING 184
SWIDTH 404 0
DWIDTH 8 0
BBX 5 11 0 -5
BITMAP
F8
18
F8
18
18
18
18
18
18
18
18
ENDCHAR
STARTCHAR 185
ENCODING 185
SWIDTH 404 0
DWIDTH 8 0
BBX 8 19 0 -5
BITMAP
36
36
36
36
36
36
36
36
F6
06
F6
36
36
36
36
36
36
36
36
ENDCHAR
STARTCHAR 186
ENCODING 186
SWIDTH 404 0
DWIDTH 8 0
BBX 8 19 0 -5
BITMAP
36
36
36
36
36
36
36
36
36
36
36
36
36
36
36
36
36
36
36
ENDCHAR
STARTCHAR 187
ENCODING 187
SWIDTH 404 0
DWIDTH 8 0
BBX 7 11 0 -5
BITMAP
FE
06
F6
36
36
36
36
36
36
36
36
ENDCHAR
STARTCHAR 188
ENCODING 188
SWIDTH 404 0
DWIDTH 8 0
BBX 7 11 0 3
BITMAP
36
36
36
36
36
36
36
36
F6
06
FE
ENDCHAR
STARTCHAR 189
ENCODING 189
SWIDTH 404 0
DWIDTH 8 0
BBX 7 10 0 4
BITMAP
36
36
36
36
36
36
36
36
36
FE
ENDCHAR
STARTCHAR 190
ENCODING 190
SWIDTH 404 0
DWIDTH 8 0
BBX 5 11 0 3
BITMAP
18
18
18
18
18
18
18
18
F8
18
F8
ENDCHAR
STARTCHAR 191
ENCODING 191
SWIDTH 404 0
DWIDTH 8 0
BBX 5 10 0 -5
BITMAP
F8
18
18
18
18
18
18
18
18
18
ENDCHAR
STARTCHAR 192
ENCODING 192
SWIDTH 404 0
DWIDTH 8 0
BBX 5 10 3 4
BITMAP
C0
C0
C0
C0
C0
C0
C0
C0
C0
F8
ENDCHAR
STARTCHAR 193
ENCODING 193
SWIDTH 404 0
DWIDTH 8 0
BBX 8 10 0 4
BITMAP
18
18
18
18
18
18
18
18
18
FF
ENDCHAR
STARTCHAR 194
ENCODING 194
SWIDTH 404 0
DWIDTH 8 0
BBX 8 10 0 -5
BITMAP
FF
18
18
18
18
18
18
18
18
18
ENDCHAR
STARTCHAR 195
ENCODING 195
SWIDTH 404 0
DWIDTH 8 0
BBX 8 19 0 -5
BITMAP
18
18
18
18
18
18
18
18
18
1F
18
18
18
18
18
18
18
18
18
ENDCHAR
STARTCHAR 196
ENCODING 196
SWIDTH 404 0
DWIDTH 8 0
BBX 8 1 0 4
BITMAP
FF
ENDCHAR
STARTCHAR 197
ENCODING 197
SWIDTH 404 0
DWIDTH 8 0
BBX 8 19 0 -5
BITMAP
18
18
18
18
18
18
18
18
18
FF
18
18
18
18
18
18
18
18
18
ENDCHAR
STARTCHAR 198
ENCODING 198
SWIDTH 404 0
DWIDTH 8 0
BBX 8 19 0 -5
BITMAP
18
18
18
18
18
18
18
18
1F
18
1F
18
18
18
18
18
18
18
18
ENDCHAR
STARTCHAR 199
ENCODING 199
SWIDTH 404 0
DWIDTH 8 0
BBX 8 19 0 -5
BITMAP
36
36
36
36
36
36
36
36
36
37
36
36
36
36
36
36
36
36
36
ENDCHAR
STARTCHAR 200
ENCODING 200
SWIDTH 404 0
DWIDTH 8 0
BBX 6 11 2 3
BITMAP
D8
D8
D8
D8
D8
D8
D8
D8
DC
C0
FC
ENDCHAR
STARTCHAR 201
ENCODING 201
SWIDTH 404 0
DWIDTH 8 0
BBX 6 11 2 -5
BITMAP
FC
C0
DC
D8
D8
D8
D8
D8
D8
D8
D8
ENDCHAR
STARTCHAR 202
ENCODING 202
SWIDTH 404 0
DWIDTH 8 0
BBX 8 11 0 3
BITMAP
36
36
36
36
36
36
36
36
F7
00
FF
ENDCHAR
STARTCHAR 203
ENCODING 203
SWIDTH 404 0
DWIDTH 8 0
BBX 8 11 0 -5
BITMAP
FF
00
F7
36
36
36
36
36
36
36
36
ENDCHAR
STARTCHAR 204
ENCODING 204
SWIDTH 404 0
DWIDTH 8 0
BBX 8 19 0 -5
BITMAP
36
36
36
36
36
36
36
36
37
30
37
36
36
36
36
36
36
36
36
ENDCHAR
STARTCHAR 205
ENCODING 205
SWIDTH 404 0
DWIDTH 8 0
BBX 8 3 0 3
BITMAP
FF
00
FF
ENDCHAR
STARTCHAR 206
ENCODING 206
SWIDTH 404 0
DWIDTH 8 0
BBX 8 19 0 -5
BITMAP
36
36
36
36
36
36
36
36
F7
00
F7
36
36
36
36
36
36
36
36
ENDCHAR
STARTCHAR 207
ENCODING 207
SWIDTH 404 0
DWIDTH 8 0
BBX 8 11 0 3
BITMAP
18
18
18
18
18
18
18
18
FF
00
FF
ENDCHAR
STARTCHAR 208
ENCODING 208
SWIDTH 404 0
DWIDTH 8 0
BBX 8 10 0 4
BITMAP
36
36
36
36
36
36
36
36
36
FF
ENDCHAR
STARTCHAR 209
ENCODING 209
SWIDTH 404 0
DWIDTH 8 0
BBX 8 11 0 -5
BITMAP
FF
00
FF
18
18
18
18
18
18
18
18
ENDCHAR
STARTCHAR 210
ENCODING 210
SWIDTH 404 0
DWIDTH 8 0
BBX 8 10 0 -5
BITMAP
FF
36
36
36
36
36
36
36
36
36
ENDCHAR
STARTCHAR 211
ENCODING 211
SWIDTH 404 0
DWIDTH 8 0
BBX 6 10 2 4
BITMAP
D8
D8
D8
D8
D8
D8
D8
D8
D8
FC
ENDCHAR
STARTCHAR 212
ENCODING 212
SWIDTH 404 0
DWIDTH 8 0
BBX 5 11 3 3
BITMAP
C0
C0
C0
C0
C0
C0
C0
C0
F8
C0
F8
ENDCHAR
STARTCHAR 213
ENCODING 213
SWIDTH 404 0
DWIDTH 8 0
BBX 5 11 3 -5
BITMAP
F8
C0
F8
C0
C0
C0
C0
C0
C0
C0
C0
ENDCHAR
STARTCHAR 214
ENCODING 214
SWIDTH 404 0
DWIDTH 8 0
BBX 6 10 2 -5
BITMAP
FC
D8
D8
D8
D8
D8
D8
D8
D8
D8
ENDCHAR
STARTCHAR 215
ENCODING 215
SWIDTH 404 0
DWIDTH 8 0
BBX 8 19 0 -5
BITMAP
36
36
36
36
36
36
36
36
36
FF
36
36
36
36
36
36
36
36
36
ENDCHAR
STARTCHAR 216
ENCODING 216
SWIDTH 404 0
DWIDTH 8 0
BBX 8 19 0 -5
BITMAP
18
18
18
18
18
18
18
18
FF
18
FF
18
18
18
18
18
18
18
18
ENDCHAR
STARTCHAR 217
ENCODING 217
SWIDTH 404 0
DWIDTH 8 0
BBX 5 10 0 4
BITMAP
18
18
18
18
18
18
18
18
18
F8
ENDCHAR
STARTCHAR 218
ENCODING 218
SWIDTH 404 0
DWIDTH 8 0
BBX 5 10 3 -5
BITMAP
F8
C0
C0
C0
C0
C0
C0
C0
C0
C0
ENDCHAR
STARTCHAR 219
ENCODING 219
SWIDTH 404 0
DWIDTH 8 0
BBX 8 19 0 -5
BITMAP
FF
FF
FF
FF
FF
FF
FF
FF
FF
FF
FF
FF
FF
FF
FF
FF
FF
FF
FF
ENDCHAR
STARTCHAR 220
ENCODING 220
SWIDTH 404 0
DWIDTH 8 0
BBX 8 10 0 -5
BITMAP
FF
FF
FF
FF
FF
FF
FF
FF
FF
FF
ENDCHAR
STARTCHAR 221
ENCODING 221
SWIDTH 404 0
DWIDTH 8 0
BBX 8 19 0 -5
BITMAP
F0
F0
F0
F0
F0
F0
F0
F0
F0
F0
F0
F0
F0
F0
F0
F0
F0
F0
F0
ENDCHAR
STARTCHAR 222
ENCODING 222
SWIDTH 404 0
DWIDTH 8 0
BBX 8 19 0 -5
BITMAP
0F
0F
0F
0F
0F
0F
0F
0F
0F
0F
0F
0F
0F
0F
0F
0F
0F
0F
0F
ENDCHAR
STARTCHAR 223
ENCODING 223
SWIDTH 404 0
DWIDTH 8 0
BBX 8 9 0 5
BITMAP
FF
FF
FF
FF
FF
FF
FF
FF
FF
ENDCHAR
STARTCHAR 224
ENCODING 224
SWIDTH 404 0
DWIDTH 8 0
BBX 7 8 0 0
BITMAP
76
DC
D8
D8
D8
D8
DC
76
ENDCHAR
STARTCHAR 225
ENCODING 225
SWIDTH 404 0
DWIDTH 8 0
BBX 7 12 0 0
BITMAP
78
CC
CC
CC
CC
D8
CC
C6
C6
C6
C6
CC
ENDCHAR
STARTCHAR 226
ENCODING 226
SWIDTH 404 0
DWIDTH 8 0
BBX 7 12 0 0
BITMAP
FE
C6
C6
C6
C0
C0
C0
C0
C0
C0
C0
C0
ENDCHAR
STARTCHAR 227
ENCODING 227
SWIDTH 404 0
DWIDTH 8 0
BBX 7 10 0 0
BITMAP
FE
6C
6C
6C
6C
6C
6C
6C
6C
6C
ENDCHAR
STARTCHAR 228
ENCODING 228
SWIDTH 404 0
DWIDTH 8 0
BBX 7 11 0 0
BITMAP
FE
C6
C2
60
30
18
30
60
C2
C6
FE
ENDCHAR
STARTCHAR 229
ENCODING 229
SWIDTH 404 0
DWIDTH 8 0
BBX 7 9 0 0
BITMAP
7E
D8
D8
D8
D8
D8
D8
D8
70
ENDCHAR
STARTCHAR 230
ENCODING 230
SWIDTH 404 0
DWIDTH 8 0
BBX 7 11 0 -1
BITMAP
66
66
66
66
66
66
66
7C
60
60
C0
ENDCHAR
STARTCHAR 231
ENCODING 231
SWIDTH 404 0
DWIDTH 8 0
BBX 7 10 0 0
BITMAP
76
DC
98
18
18
18
18
18
18
18
ENDCHAR
STARTCHAR 232
ENCODING 232
SWIDTH 404 0
DWIDTH 8 0
BBX 6 11 1 0
BITMAP
FC
30
78
CC
CC
CC
CC
CC
78
30
FC
ENDCHAR
STARTCHAR 233
ENCODING 233
SWIDTH 404 0
DWIDTH 8 0
BBX 7 11 0 0
BITMAP
38
6C
C6
C6
C6
FE
C6
C6
C6
6C
38
ENDCHAR
STARTCHAR 234
ENCODING 234
SWIDTH 404 0
DWIDTH 8 0
BBX 7 12 0 0
BITMAP
38
6C
C6
C6
C6
C6
6C
6C
6C
6C
6C
EE
ENDCHAR
STARTCHAR 235
ENCODING 235
SWIDTH 404 0
DWIDTH 8 0
BBX 6 12 1 0
BITMAP
3C
40
60
30
18
7C
CC
CC
CC
CC
CC
78
ENDCHAR
STARTCHAR 236
ENCODING 236
SWIDTH 404 0
DWIDTH 8 0
BBX 8 7 0 2
BITMAP
7E
DB
DB
DB
DB
DB
7E
ENDCHAR
STARTCHAR 237
ENCODING 237
SWIDTH 404 0
DWIDTH 8 0
BBX 8 11 0 0
BITMAP
03
06
7E
DB
DB
DB
DB
D3
7E
60
C0
ENDCHAR
STARTCHAR 238
ENCODING 238
SWIDTH 404 0
DWIDTH 8 0
BBX 5 12 1 0
BITMAP
38
60
C0
C0
C0
F8
C0
C0
C0
C0
60
38
ENDCHAR
STARTCHAR 239
ENCODING 239
SWIDTH 404 0
DWIDTH 8 0
BBX 7 11 0 0
BITMAP
7C
C6
C6
C6
C6
C6
C6
C6
C6
C6
C6
ENDCHAR
STARTCHAR 240
ENCODING 240
SWIDTH 404 0
DWIDTH 8 0
BBX 7 7 0 2
BITMAP
FE
00
00
FE
00
00
FE
ENDCHAR
STARTCHAR 241
ENCODING 241
SWIDTH 404 0
DWIDTH 8 0
BBX 8 8 0 0
BITMAP
18
18
7E
18
18
00
00
FF
ENDCHAR
STARTCHAR 242
ENCODING 242
SWIDTH 404 0
DWIDTH 8 0
BBX 6 11 1 0
BITMAP
C0
60
30
18
0C
18
30
60
C0
00
FC
ENDCHAR
STARTCHAR 243
ENCODING 243
SWIDTH 404 0
DWIDTH 8 0
BBX 6 11 1 0
BITMAP
0C
18
30
60
C0
60
30
18
0C
00
FC
ENDCHAR
STARTCHAR 244
ENCODING 244
SWIDTH 404 0
DWIDTH 8 0
BBX 5 17 3 -5
BITMAP
70
D8
D8
D8
C0
C0
C0
C0
C0
C0
C0
C0
C0
C0
C0
C0
C0
ENDCHAR
STARTCHAR 245
ENCODING 245
SWIDTH 404 0
DWIDTH 8 0
BBX 5 17 0 -3
BITMAP
18
18
18
18
18
18
18
18
18
18
18
18
18
D8
D8
D8
70
ENDCHAR
STARTCHAR 246
ENCODING 246
SWIDTH 404 0
DWIDTH 8 0
BBX 6 7 1 2
BITMAP
30
30
00
FC
00
30
30
ENDCHAR
STARTCHAR 247
ENCODING 247
SWIDTH 404 0
DWIDTH 8 0
BBX 7 5 0 3
BITMAP
76
DC
00
76
DC
ENDCHAR
STARTCHAR 248
ENCODING 248
SWIDTH 404 0
DWIDTH 8 0
BBX 5 5 1 8
BITMAP
70
D8
D8
D8
70
ENDCHAR
STARTCHAR 249
ENCODING 249
SWIDTH 404 0
DWIDTH 8 0
BBX 2 3 3 3
BITMAP
C0
C0
C0
ENDCHAR
STARTCHAR 250
ENCODING 250
SWIDTH 404 0
DWIDTH 8 0
BBX 2 2 3 3
BITMAP
C0
C0
ENDCHAR
STARTCHAR 251
ENCODING 251
SWIDTH 404 0
DWIDTH 8 0
BBX 8 13 0 0
BITMAP
0F
0C
0C
0C
0C
0C
0C
EC
6C
6C
6C
3C
1C
ENDCHAR
STARTCHAR 252
ENCODING 252
SWIDTH 404 0
DWIDTH 8 0
BBX 6 7 0 6
BITMAP
D8
6C
6C
6C
6C
6C
6C
ENDCHAR
STARTCHAR 253
ENCODING 253
SWIDTH 404 0
DWIDTH 8 0
BBX 5 7 0 6
BITMAP
70
D8
10
30
60
C8
F8
ENDCHAR
STARTCHAR 254
ENCODING 254
SWIDTH 404 0
DWIDTH 8 0
BBX 5 8 1 1
BITMAP
F8
F8
F8
F8
F8
F8
F8
F8
ENDCHAR
STARTCHAR 255
ENCODING 255
SWIDTH 404 0
DWIDTH 8 0
BBX 0 0 0 0
BITMAP
ENDCHAR
ENDFONT
